<?xml version="1.0" standalone="no"?>
<!DOCTYPE svg PUBLIC "-//W3C//DTD SVG 1.1//EN" "http://www.w3.org/Graphics/SVG/1.1/DTD/svg11.dtd" >
<svg xmlns="http://www.w3.org/2000/svg">
<metadata></metadata>
<defs>
<font id="VeveyRegular" horiz-adv-x="696" >
<font-face units-per-em="2048" ascent="1536" descent="-512" />
<missing-glyph horiz-adv-x="323" />
<glyph horiz-adv-x="0" />
<glyph horiz-adv-x="2048" />
<glyph unicode="&#xd;" horiz-adv-x="1024" />
<glyph unicode=" "  horiz-adv-x="323" />
<glyph unicode="&#x09;" horiz-adv-x="323" />
<glyph unicode="&#xa0;" horiz-adv-x="323" />
<glyph unicode="!" horiz-adv-x="258" d="M57 0v182h142v-182h-142zM57 774v756h142v-756l-33 -432h-76z" />
<glyph unicode="&#x22;" horiz-adv-x="425" d="M49 1348v182h141v-184l-59 -185h-74l43 187h-51zM244 1348v182h141v-184l-59 -185h-74l43 187h-51z" />
<glyph unicode="#" horiz-adv-x="946" d="M137 528v109h164l59 356h-172v109h189l72 426h83l-71 -426h153l72 426h84l-72 -426h127v-109h-145l-59 -356h153v-109h-172l-86 -528h-82l86 528h-155l-86 -528h-82l86 528h-146zM383 637h156l59 356h-156z" />
<glyph unicode="$" d="M78 1165v156q0 137 129 201q43 22 102 28v179h78v-179q113 -6 173.5 -60t60.5 -171v-164h-156v164q0 84 -23.5 120t-83.5 40h-24q-57 -4 -80 -43t-23 -117v-201q0 -87 22 -116l44 -58t46 -58q74 -91 115.5 -140t72 -88.5t49 -71t26.5 -62t11.5 -70.5t3.5 -94v-133 q0 -133 -63.5 -185t-164.5 -58v-181h-78v181q-104 8 -169.5 66.5t-65.5 166.5v240h153v-236q0 -141 69 -159q22 -5 49.5 -5t50 5.5t36.5 22.5q29 33 29 136v238q0 69 -243 339q-54 60 -72.5 87.5t-30.5 43t-21 41.5q-22 60 -22 195z" />
<glyph unicode="%" horiz-adv-x="686" d="M63 1012v342q0 22 1.5 42.5t2.5 37.5q3 52 35.5 76t71.5 24q79 0 100 -74q9 -36 9 -82v-366q0 -53 -9 -68q-27 -51 -100.5 -51t-101.5 51q-9 18 -9 68zM125 997q0 -33 8 -53t39 -20h2q35 0 41 26.5t6 96.5v380q0 35 -7 55.5t-40 20.5h-2q-31 0 -38 -19t-7 -54zM127 -76 l354 1678h80l-356 -1678h-78zM397 117v343q0 91 9 105q21 74 101 74t101 -74q8 -32 8 -79v-369q0 -52 -8 -68q-27 -51 -100.5 -51t-101.5 51q-9 18 -9 68zM459 102q0 -33 8 -53t39 -20h2q35 0 41 26.5t6 96.5v380q0 35 -7 55.5t-40 20.5h-2q-31 0 -38 -19t-7 -54z" />
<glyph unicode="&#x26;" horiz-adv-x="923" d="M68 248v325q0 95 52 158q25 31 61 61.5t79 71.5q-98 170 -106 398q0 164 61 225t182 61q147 0 201 -70q45 -60 45 -225q-2 -215 -219 -374q51 -93 90 -170q64 -129 98 -189l-4 340h74v-463l199 -397h-158l-82 172q-46 -116 -156 -172q-45 -23 -101 -23t-110.5 11.5 t-98.5 41.5q-100 66 -107 218zM226 609q1 -36 1 -70l2 -297q0 -191 144 -191q101 0 171 99q27 40 37.5 79t2.5 58l-273 512l-35 -35q-42 -42 -46.5 -80.5t-3.5 -74.5zM312 1360q1 -41 1 -99t4.5 -99.5t13.5 -75.5q11 -43 58 -144q82 35 101 225q4 47 4 82t2 76t-6 76 q-17 80 -93 80q-63 0 -79 -53q-7 -27 -6 -68z" />
<glyph unicode="'" horiz-adv-x="237" d="M49 1348v182h141v-184l-59 -185h-74l43 187h-51z" />
<glyph unicode="(" horiz-adv-x="456" d="M113 543q0 200 10 342.5t31 270.5q46 289 118 376h60q-111 -178 -121 -876q-7 -481 65 -800q23 -106 56 -171h-60q-64 90 -114 385q-45 273 -45 473z" />
<glyph unicode=")" horiz-adv-x="456" d="M113 -315q90 179 115 679q14 255 0.5 486t-28.5 348q-33 245 -87 334h59q72 -87 118 -376q42 -259 42 -466t-12.5 -349t-33.5 -271q-50 -295 -114 -385h-59z" />
<glyph unicode="*" horiz-adv-x="456" d="M63 1303l99 61l-99 61l33 54l92 -56v113h66v-115l96 58l33 -54l-98 -61l98 -61l-31 -54l-98 60v-111h-66v109l-92 -58z" />
<glyph unicode="+" horiz-adv-x="536" d="M27 776v109h481v-109h-481zM211 590v481h108v-481h-108z" />
<glyph unicode="," horiz-adv-x="251" d="M57 0v182h142v-184l-60 -184h-73l43 186h-52z" />
<glyph unicode="-" horiz-adv-x="471" d="M49 670v108h369v-108h-369z" />
<glyph unicode="." horiz-adv-x="256" d="M57 0v182h142v-182h-142z" />
<glyph unicode="/" horiz-adv-x="747" d="M113 -135l387 1814h110l-389 -1814h-108z" />
<glyph unicode="0" d="M80 268v752q0 277 22.5 354.5t87 126.5t158.5 49t160 -49q87 -66 100 -195q10 -101 10 -286v-752q0 -123 -20 -164q-67 -127 -250 -127q-181 0 -248 127q-20 41 -20 164zM231 233q0 -92 15 -123q29 -59 102 -59h2q80 0 102 66q11 35 12 93t1 142v938q0 84 -18.5 135.5 t-96.5 51.5h-2q-100 0 -112 -108q-3 -34 -3 -73z" />
<glyph unicode="1" horiz-adv-x="585" d="M66 1358l165 172h158v-1452h121v-78h-410v78h131v1352l-108 -127z" />
<glyph unicode="2" d="M82 0q0 209 14 278q20 104 68 195q39 82 92 158t102 153q113 182 113 334v195q0 84 -25.5 122t-90.5 38t-91 -36t-26 -124v-199h-156v199q0 127 70.5 180t201.5 53q126 0 204 -72q67 -63 67 -159v-201q0 -158 -121 -348q-51 -80 -111.5 -159t-91 -128t-45 -76.5 t-26.5 -65.5q-30 -91 -27 -185h424l2 -152h-547z" />
<glyph unicode="3" d="M80 219v176h156v-176q0 -76 20 -117t90 -45q127 0 127 189l2 297q0 123 -12 160q-26 81 -115 81h-82v78h78q45 0 70.5 17.5t39.5 59.5q19 61 19 201t-2 185t-13 77q-25 68 -102 68q-66 -4 -93 -45t-27 -114v-164h-156v164q0 88 78 159q82 74 198 74q179 0 243 -138 q24 -52 24 -132v-168q4 -270 -158 -281q72 -9 103 -46q59 -67 59 -201v-326q0 -266 -273 -266q-132 0 -208 74q-66 64 -66 159z" />
<glyph unicode="4" horiz-adv-x="675" d="M55 276v158l299 1096v2h158v-1098h88v-158h-88v-276h-158v276h-299zM139 434h215v787z" />
<glyph unicode="5" d="M78 294v101h153q0 -61 -1 -122.5t7.5 -110.5t32 -80t83 -31t86 27.5t26.5 111.5l4 439q0 123 -13 161q-26 80 -114 80q-66 0 -93.5 -30.5t-41.5 -102.5l-10 -65h-95q24 296 31.5 523.5t16.5 334.5h468v-160h-382l-19 -471q6 2 13.5 9t19.5 16q30 24 96 24q275 0 275 -284 v-478q0 -78 -67 -139q-77 -70 -187.5 -70t-170.5 35q-92 54 -107 151q-11 70 -11 131z" />
<glyph unicode="6" d="M80 1222q0 118 12 162q25 82 93.5 124t151.5 42t135 -20.5t86 -53.5q67 -64 67 -159v-164h-156v164q0 78 -22.5 119t-93.5 41t-93 -39t-22 -109.5t-1 -179.5t-1 -234q14 4 39.5 18.5t80.5 14.5q269 0 269 -284v-478q0 -78 -67 -139q-77 -70 -187.5 -70t-170 35 t-85.5 87.5t-29.5 119t-3.5 146.5v655zM234.5 235.5q-1.5 -55.5 7 -96.5t32 -64.5t83 -23.5t86 27.5t26.5 111.5l4 439q0 123 -12 160q-26 81 -115 81q-66 0 -86 -42t-24 -91v-385q0 -61 -1.5 -116.5z" />
<glyph unicode="7" d="M82 1450v80h547l-381 -1534h-156l359 1454h-369z" />
<glyph unicode="8" horiz-adv-x="688" d="M70 248v356q0 155 59 224q38 45 102 57q-156 45 -155 280v74q0 145 78 231q69 78 182 78q195 0 260 -166q22 -59 22 -141v-76q2 -236 -155 -280q64 -11 96 -48q66 -77 66 -233v-356q0 -165 -101 -228q-62 -38 -182 -38q-43 0 -91 6t-89 32q-92 60 -92 228zM221 602 l2 -360q0 -182 121 -189h6q66 4 93.5 52.5t27.5 136.5l2 360q0 117 -10 155q-21 80 -105 87h-10q-122 0 -126 -156q-1 -43 -1 -86zM225 1253.5q0 -120.5 5.5 -180t18.5 -92.5t36.5 -45t61.5 -12t61.5 12t37 45t18.5 92.5t5 141t-3 128t-16 75.5q-24 59 -104 63 q-81 -4 -104 -63q-17 -44 -17 -164.5z" />
<glyph unicode="9" d="M76 211v164h155v-164q0 -78 22.5 -119t93.5 -41t93.5 39t22.5 109.5t1 179t1 233.5q-14 -4 -40 -18t-81 -14q-268 0 -268 284v477q0 77 66 137q79 72 188.5 72t169 -34.5t86 -87t29.5 -119t3 -146.5v-655l3 -202q0 -118 -13 -163q-25 -82 -93.5 -124t-151.5 -42 t-135 20.5t-86 53.5q-66 66 -66 160zM227 899q0 -123 13 -161q26 -81 114 -81q66 0 86.5 42t24.5 92v385q0 61 1 116.5t-7 96.5q-17 88 -109 88q-66 0 -92.5 -28t-26.5 -112z" />
<glyph unicode=":" horiz-adv-x="260" d="M57 -2v182h142v-182h-142zM57 823v183h142v-183h-142z" />
<glyph unicode=";" horiz-adv-x="253" d="M57 0v182h142v-184l-60 -184h-73l43 186h-52zM57 823v183h142v-183h-142z" />
<glyph unicode="&#x3c;" horiz-adv-x="999" d="M119 786v84l758 406v-133l-623 -320l623 -317v-129z" />
<glyph unicode="=" horiz-adv-x="536" d="M27 657v109h481v-109h-481zM27 893v108h481v-108h-481z" />
<glyph unicode="&#x3e;" horiz-adv-x="999" d="M119 377v129l622 317l-622 320v133l758 -406v-84z" />
<glyph unicode="?" horiz-adv-x="718" d="M100 1114v199q0 127 71 184t202 57q127 0 203 -76q67 -67 67 -163v-201q0 -66 -35 -129t-77 -125.5t-77.5 -126t-37.5 -127.5l-6 -272h-78l-8 268q-2 78 23.5 146.5t57 130t58 121t26.5 118.5v195q0 84 -25.5 126t-90 42t-91 -40t-26.5 -128v-199h-156zM305 0v182h141 v-182h-141z" />
<glyph unicode="@" horiz-adv-x="1157" d="M61 659q0 166 43 323t119 278.5t179.5 196.5t214 75t195.5 -36t146 -112q127 -162 127 -481q0 -188 -71 -338q-47 -100 -106.5 -144t-115 -50t-97.5 17.5t-54 60.5q-45 -53 -107.5 -73t-113.5 14t-77 129t0 250.5t71 240t99 119t109.5 22.5t100.5 -64l12 58l117 -2 l-100 -561q-12 -66 3 -102t44.5 -39t69.5 29t67.5 82t41 95t22.5 95q20 101 20 186q0 540 -397 540q-106 0 -196.5 -70.5t-156.5 -185.5q-141 -241 -141 -550q0 -270 118 -432q97 -134 245 -162q171 -30 321 72q43 30 80 61l43 -54q-96 -80 -204.5 -122.5t-248.5 -18.5 q-280 52 -384 371q-38 117 -38 282zM461 549q16 -78 49 -95.5t69.5 18.5t55.5 116l65 366q10 55 -18.5 87t-65.5 29t-77.5 -68.5t-73.5 -227.5q-20 -147 -4 -225z" />
<glyph unicode="A" horiz-adv-x="620" d="M39 -2l170 1534h188l191 -1534h-144l-34 283h-246l-41 -283h-84zM168 360h229l-112 943h-15z" />
<glyph unicode="B" d="M80 -2v858h2v678h219q160 0 229 -56q74 -60 74 -212v-160v-14q0 -256 -141 -267q72 -9 103 -46q59 -67 59 -201v-314q0 -176 -98 -234q-42 -24 -91 -28t-94 -4h-262zM238 70h106q127 0 127 188l2 285q0 123 -12 160q-26 81 -115 81h-108v-714zM240 862h86q45 0 70.5 16.5 t39.5 57.5q19 59 19 197.5t-2 183.5t-13 77q-26 68 -102 68h-98v-600z" />
<glyph unicode="C" d="M70 1222q0 118 12 162q25 82 93.5 124t151.5 42t135 -20.5t86 -53.5q66 -63 66 -159v-164h-155v164q0 78 -22.5 119t-93.5 41t-93.5 -39t-22.5 -108v-151l-2 -473v-354q0 -60 -1 -116v-12q0 -48 8 -85q8 -41 31.5 -64.5t83 -23.5t86 27.5t26.5 111.5v224h155v-228 q0 -79 -66 -139q-77 -70 -187.5 -70t-170 35t-86 87.5t-29.5 119t-3 146.5v655z" />
<glyph unicode="D" d="M74 -4v1536h305q151 0 215 -113q24 -41 24 -98v-1059q0 -162 -108 -226q-69 -40 -164 -40h-272zM231 68h117q49 0 83 38.5t34 116.5v362l2 379v255q0 134 -10.5 169t-29.5 53.5t-58 18.5h-138v-1392z" />
<glyph unicode="E" horiz-adv-x="505" d="M55 1530h414v-80h-254v-594h236v-78h-236l2 -700h250v-78h-410z" />
<glyph unicode="F" horiz-adv-x="536" d="M86 1530h414v-80h-254v-590h235v-78h-235q2 -106 2 -782h-160z" />
<glyph unicode="G" horiz-adv-x="698" d="M82 215v805q0 277 22.5 354.5t89 126.5t145.5 49t131 -18.5t87 -49.5q68 -62 68 -165v-164h-154v162q0 96 -27.5 129t-85 33t-82 -21.5t-34.5 -58.5q-8 -32 -8 -74v-13q2 -50 2 -108v-850q0 -61 -2 -116v-15q0 -47 8 -82q10 -41 34.5 -64.5t84 -23.5t84 27.5t24.5 111.5 v592h-141v78h297v-649q0 -234 -271 -234q-170 0 -218 73q-17 24 -35.5 59.5t-18.5 105.5z" />
<glyph unicode="H" horiz-adv-x="737" d="M100 1530h160v-672h227v672h158v-1530h-158v780h-227v-780h-158z" />
<glyph unicode="I" horiz-adv-x="325" d="M84 -4v1536h158v-1536h-158z" />
<glyph unicode="J" horiz-adv-x="692" d="M47 268v146h154v-62q0 -31 -1 -60.5t-1 -64.5t3 -67.5t15 -57.5q25 -51 98 -51h2q81 0 102 66q13 41 13 235v1178h154v-1262q0 -123 -18.5 -159t-37 -60t-46.5 -39q-57 -33 -168 -33t-163.5 32t-75.5 78t-26.5 88t-3.5 93z" />
<glyph unicode="K" horiz-adv-x="657" d="M76 -2v1536h157v-594l302 594h79l-252 -496l261 -1040h-158l-207 838l-25 -52v-786h-157z" />
<glyph unicode="L" horiz-adv-x="497" d="M55 1530h160l2 -1448h250v-82h-410z" />
<glyph unicode="M" horiz-adv-x="761" d="M55 -2v1538h156l166 -1018l168 1014h157v-1536h-157v1048l-127 -768h-158l-125 768v-1046h-80z" />
<glyph unicode="N" horiz-adv-x="698" d="M80 0v1530h80l387 -1088v1088h80v-1530h-78l-389 1098v-1098h-80z" />
<glyph unicode="O" d="M78 268v752q0 277 22.5 354.5t87 126.5t158.5 49t160 -49q87 -66 100 -195q10 -101 10 -286v-752q0 -123 -20 -164q-67 -127 -250 -127q-181 0 -248 127q-20 41 -20 164zM229 233q0 -92 15 -123q29 -59 102 -59h2q80 0 102 66q11 35 12 93t1 142v938q0 84 -18.5 135.5 t-96.5 51.5h-2q-100 0 -112 -108q-3 -34 -3 -73z" />
<glyph unicode="P" horiz-adv-x="647" d="M57 0l2 1532h297q246 0 246 -215v-338q0 -199 -242 -199h-145v-780h-158zM217 860h141q81 0 88 119v72l3 168v96q0 93 -33 127q-19 18 -56 18h-143v-600z" />
<glyph unicode="Q" horiz-adv-x="747" d="M90 268v752q0 284 23 358t87 123t158 49t160 -49q86 -65 100 -195q11 -94 11 -286v-752q0 -123 -19.5 -161t-48.5 -64l164 8v-74h-367q-182 0 -247 127q-21 44 -21 164zM242 233q0 -94 15 -124q28 -58 101 -58h2q81 0 102 66q13 41 13 235v938q0 84 -18.5 135.5 t-96.5 51.5h-2q-101 0 -111 -108q-3 -34 -3 -73z" />
<glyph unicode="R" d="M84 0l2 1532h279q157 0 221 -108q24 -42 24 -107v-338q-4 -166 -215 -199q8 -29 23.5 -77t34 -107t39 -127t54 -178.5t87.5 -290.5h-156l-219 780h-16v-780h-158zM244 860h123q77 0 88 119v72l2 168v96q0 93 -33 127q-18 18 -55 18h-125v-600z" />
<glyph unicode="S" d="M78 1165v156q0 150 152 211q51 20 118 20q131 0 202 -53t71 -180v-164h-156v164q0 88 -26.5 124t-91 36t-90.5 -38t-26 -122v-201q0 -87 22 -116l44 -58t46 -58q74 -91 115.5 -140t72 -88.5t49 -71t26.5 -62t11.5 -70.5t3.5 -94v-133q0 -202 -163 -235q-50 -10 -108 -10 q-117 0 -193.5 59t-76.5 176v240h153v-236q0 -141 69 -159q22 -5 49.5 -5t50 5.5t36.5 22.5q29 33 29 136v238q0 69 -243 339q-54 60 -72.5 87.5t-30.5 43t-21 41.5q-22 60 -22 195z" />
<glyph unicode="T" horiz-adv-x="647" d="M49 1450v80h545v-80h-195v-1450h-157v1450h-193z" />
<glyph unicode="U" d="M82 268v1262h154v-1178q0 -31 -1.5 -60.5t-1.5 -64.5t3.5 -67.5t15.5 -57.5q25 -51 98 -51h2q80 0 102 66q11 35 12 93t1 142v1178h154v-1262q0 -120 -27 -173.5t-89.5 -85.5t-133.5 -32h-41q-72 0 -134 32q-103 54 -111 166q-3 42 -3 93z" />
<glyph unicode="V" d="M78 1530h151l170 -1059l138 1059h81l-202 -1530h-117z" />
<glyph unicode="W" horiz-adv-x="866" d="M66 1530h151l96 -1002l80 846h135l86 -846l107 1002h84l-160 -1530h-108l-105 948l-90 -948h-117z" />
<glyph unicode="X" d="M74 1530h155l160 -623l154 623h80l-197 -764l199 -766h-158l-158 612l-155 -612h-78l196 752z" />
<glyph unicode="Y" horiz-adv-x="653" d="M49 1530h154l151 -684l166 684h78l-201 -862v-668h-157v666z" />
<glyph unicode="Z" d="M72 0l374 1450h-370v80h545l-365 -1446h365v-84h-549z" />
<glyph unicode="[" horiz-adv-x="468" d="M82 -313v1843h309v-80h-192v-1683h192v-80h-309z" />
<glyph unicode="\" horiz-adv-x="747" d="M113 1679h110l387 -1814h-108z" />
<glyph unicode="]" horiz-adv-x="473" d="M82 -233h192v1683h-192v80h309v-1843h-309v80z" />
<glyph unicode="^" horiz-adv-x="524" d="M57 1323l172 213h66l170 -213h-98l-107 125l-104 -125h-99z" />
<glyph unicode="_" horiz-adv-x="659" d="M55 2h551v-106h-551v106z" />
<glyph unicode="`" horiz-adv-x="325" d="M53 1821h119l88 -213h-74z" />
<glyph unicode="a" horiz-adv-x="620" d="M39 -2l170 1534h188l191 -1534h-144l-34 283h-246l-41 -283h-84zM168 360h229l-112 943h-15z" />
<glyph unicode="b" d="M80 -2v858h2v678h219q160 0 229 -56q74 -60 74 -212v-160v-14q0 -256 -141 -267q72 -9 103 -46q59 -67 59 -201v-314q0 -176 -98 -234q-42 -24 -91 -28t-94 -4h-262zM238 70h106q127 0 127 188l2 285q0 123 -12 160q-26 81 -115 81h-108v-714zM240 862h86q45 0 70.5 16.5 t39.5 57.5q19 59 19 197.5t-2 183.5t-13 77q-26 68 -102 68h-98v-600z" />
<glyph unicode="c" d="M70 1222q0 118 12 162q25 82 93.5 124t151.5 42t135 -20.5t86 -53.5q66 -63 66 -159v-164h-155v164q0 78 -22.5 119t-93.5 41t-93.5 -39t-22.5 -108v-151l-2 -473v-354q0 -60 -1 -116v-12q0 -48 8 -85q8 -41 31.5 -64.5t83 -23.5t86 27.5t26.5 111.5v224h155v-228 q0 -79 -66 -139q-77 -70 -187.5 -70t-170 35t-86 87.5t-29.5 119t-3 146.5v655z" />
<glyph unicode="d" d="M74 -4v1536h305q151 0 215 -113q24 -41 24 -98v-1059q0 -162 -108 -226q-69 -40 -164 -40h-272zM231 68h117q49 0 83 38.5t34 116.5v362l2 379v255q0 134 -10.5 169t-29.5 53.5t-58 18.5h-138v-1392z" />
<glyph unicode="e" horiz-adv-x="505" d="M55 1530h414v-80h-254v-594h236v-78h-236l2 -700h250v-78h-410z" />
<glyph unicode="f" horiz-adv-x="536" d="M86 1530h414v-80h-254v-590h235v-78h-235q2 -106 2 -782h-160z" />
<glyph unicode="g" horiz-adv-x="698" d="M82 215v805q0 277 22.5 354.5t89 126.5t145.5 49t131 -18.5t87 -49.5q68 -62 68 -165v-164h-154v162q0 96 -27.5 129t-85 33t-82 -21.5t-34.5 -58.5q-8 -32 -8 -74v-13q2 -50 2 -108v-850q0 -61 -2 -116v-15q0 -47 8 -82q10 -41 34.5 -64.5t84 -23.5t84 27.5t24.5 111.5 v592h-141v78h297v-649q0 -234 -271 -234q-170 0 -218 73q-17 24 -35.5 59.5t-18.5 105.5z" />
<glyph unicode="h" horiz-adv-x="737" d="M100 1530h160v-672h227v672h158v-1530h-158v780h-227v-780h-158z" />
<glyph unicode="i" horiz-adv-x="325" d="M84 -4v1536h158v-1536h-158z" />
<glyph unicode="j" horiz-adv-x="692" d="M47 268v146h154v-62q0 -31 -1 -60.5t-1 -64.5t3 -67.5t15 -57.5q25 -51 98 -51h2q81 0 102 66q13 41 13 235v1178h154v-1262q0 -123 -18.5 -159t-37 -60t-46.5 -39q-57 -33 -168 -33t-163.5 32t-75.5 78t-26.5 88t-3.5 93z" />
<glyph unicode="k" horiz-adv-x="657" d="M76 -2v1536h157v-594l302 594h79l-252 -496l261 -1040h-158l-207 838l-25 -52v-786h-157z" />
<glyph unicode="l" horiz-adv-x="497" d="M55 1530h160l2 -1448h250v-82h-410z" />
<glyph unicode="m" horiz-adv-x="761" d="M55 -2v1538h156l166 -1018l168 1014h157v-1536h-157v1048l-127 -768h-158l-125 768v-1046h-80z" />
<glyph unicode="n" horiz-adv-x="698" d="M80 0v1530h80l387 -1088v1088h80v-1530h-78l-389 1098v-1098h-80z" />
<glyph unicode="o" d="M78 268v752q0 277 22.5 354.5t87 126.5t158.5 49t160 -49q87 -66 100 -195q10 -101 10 -286v-752q0 -123 -20 -164q-67 -127 -250 -127q-181 0 -248 127q-20 41 -20 164zM229 233q0 -92 15 -123q29 -59 102 -59h2q80 0 102 66q11 35 12 93t1 142v938q0 84 -18.5 135.5 t-96.5 51.5h-2q-100 0 -112 -108q-3 -34 -3 -73z" />
<glyph unicode="p" horiz-adv-x="647" d="M57 0l2 1532h297q246 0 246 -215v-338q0 -199 -242 -199h-145v-780h-158zM217 860h141q81 0 88 119v72l3 168v96q0 93 -33 127q-19 18 -56 18h-143v-600z" />
<glyph unicode="q" horiz-adv-x="747" d="M90 268v752q0 284 23 358t87 123t158 49t160 -49q86 -65 100 -195q11 -94 11 -286v-752q0 -123 -19.5 -161t-48.5 -64l164 8v-74h-367q-182 0 -247 127q-21 44 -21 164zM242 233q0 -94 15 -124q28 -58 101 -58h2q81 0 102 66q13 41 13 235v938q0 84 -18.5 135.5 t-96.5 51.5h-2q-101 0 -111 -108q-3 -34 -3 -73z" />
<glyph unicode="r" d="M84 0l2 1532h279q157 0 221 -108q24 -42 24 -107v-338q-4 -166 -215 -199q8 -29 23.5 -77t34 -107t39 -127t54 -178.5t87.5 -290.5h-156l-219 780h-16v-780h-158zM244 860h123q77 0 88 119v72l2 168v96q0 93 -33 127q-18 18 -55 18h-125v-600z" />
<glyph unicode="s" d="M78 1165v156q0 150 152 211q51 20 118 20q131 0 202 -53t71 -180v-164h-156v164q0 88 -26.5 124t-91 36t-90.5 -38t-26 -122v-201q0 -87 22 -116l44 -58t46 -58q74 -91 115.5 -140t72 -88.5t49 -71t26.5 -62t11.5 -70.5t3.5 -94v-133q0 -202 -163 -235q-50 -10 -108 -10 q-117 0 -193.5 59t-76.5 176v240h153v-236q0 -141 69 -159q22 -5 49.5 -5t50 5.5t36.5 22.5q29 33 29 136v238q0 69 -243 339q-54 60 -72.5 87.5t-30.5 43t-21 41.5q-22 60 -22 195z" />
<glyph unicode="t" horiz-adv-x="647" d="M49 1450v80h545v-80h-195v-1450h-157v1450h-193z" />
<glyph unicode="u" d="M82 268v1262h154v-1178q0 -31 -1.5 -60.5t-1.5 -64.5t3.5 -67.5t15.5 -57.5q25 -51 98 -51h2q80 0 102 66q11 35 12 93t1 142v1178h154v-1262q0 -120 -27 -173.5t-89.5 -85.5t-133.5 -32h-41q-72 0 -134 32q-103 54 -111 166q-3 42 -3 93z" />
<glyph unicode="v" d="M78 1530h151l170 -1059l138 1059h81l-202 -1530h-117z" />
<glyph unicode="w" horiz-adv-x="866" d="M66 1530h151l96 -1002l80 846h135l86 -846l107 1002h84l-160 -1530h-108l-105 948l-90 -948h-117z" />
<glyph unicode="x" d="M74 1530h155l160 -623l154 623h80l-197 -764l199 -766h-158l-158 612l-155 -612h-78l196 752z" />
<glyph unicode="y" horiz-adv-x="653" d="M49 1530h154l151 -684l166 684h78l-201 -862v-668h-157v666z" />
<glyph unicode="z" d="M72 0l374 1450h-370v80h545l-365 -1446h365v-84h-549z" />
<glyph unicode="|" horiz-adv-x="245" d="M63 -104v1734h107v-1734h-107z" />
<glyph unicode="&#xa5;" horiz-adv-x="653" d="M49 1530h154l151 -684l166 684h78l-201 -862v-15h162v-82h-162v-118h162v-82h-162v-371h-157v371h-162v82h162v118h-162v82h162v13z" />
<glyph unicode="&#xa8;" horiz-adv-x="526" d="M102 1608v161h121v-161h-121zM289 1608v161h121v-161h-121z" />
<glyph unicode="&#xad;" horiz-adv-x="471" d="M49 670v108h369v-108h-369z" />
<glyph unicode="&#xbf;" horiz-adv-x="718" d="M100 0q0 66 35 129.5t77 125.5t78 124.5t38 128.5l6 272h78l8 -268q2 -78 -23.5 -146.5t-57.5 -130t-58.5 -121t-26.5 -118.5v-195q0 -84 25.5 -121.5t90.5 -37.5t91 35.5t26 123.5v199h156v-199q0 -127 -70.5 -180t-201.5 -53q-126 0 -204 72q-67 63 -67 159v201z M297 932v182h141v-182h-141z" />
<glyph unicode="&#xc0;" horiz-adv-x="647" d="M59 -2l170 1534h189l190 -1534h-143l-35 283h-246l-41 -283h-84zM164 1821h119l88 -213h-74zM188 360h230l-113 943h-14z" />
<glyph unicode="&#xc1;" horiz-adv-x="714" d="M72 -2l170 1534h188l191 -1534h-144l-35 283h-245l-41 -283h-84zM201 360h229l-113 943h-14zM254 1608l88 213h119l-133 -213h-74z" />
<glyph unicode="&#xc2;" horiz-adv-x="620" d="M39 -2l170 1534h188l191 -1534h-144l-34 283h-246l-41 -283h-84zM92 1608l172 213h66l170 -213h-99l-106 125l-105 -125h-98zM168 360h229l-112 943h-15z" />
<glyph unicode="&#xc3;" horiz-adv-x="698" d="M80 -2l170 1534h188l191 -1534h-144l-34 283h-246l-41 -283h-84zM115 1610q0 162 129 162q25 0 49 -4.5t57 -27.5t53.5 -41t48.5 -18t48 14.5t20 63.5h62q0 -78 -33 -120t-96 -42q-59 0 -100.5 27.5t-61 45.5t-47 18t-48 -14.5t-20.5 -63.5h-61zM209 360h229l-112 943 h-15z" />
<glyph unicode="&#xc4;" horiz-adv-x="620" d="M39 -2l170 1534h188l191 -1534h-144l-34 283h-246l-41 -283h-84zM152 1608v161h120v-161h-120zM168 360h229l-112 943h-15zM338 1608v161h121v-161h-121z" />
<glyph unicode="&#xc7;" d="M70 1222q0 118 12 162q25 82 93.5 124t151.5 42t135 -20.5t86 -53.5q66 -63 66 -159v-164h-155v164q0 78 -22.5 119t-93.5 41t-93.5 -39t-22.5 -108v-151l-2 -473v-354q0 -61 -1 -116.5t7.5 -96.5t32 -64.5t83 -23.5t86 27.5t26.5 111.5v224h155v-228q0 -73 -61 -132 q-75 -70 -184 -74l-29 -89q89 19 134 -55q42 -72 0 -134q-49 -70 -171 -48l-2 65q82 -22 113 19q14 18 14 39.5t-14 38.5q-33 40 -95 10l-51 35l35 119q-147 15 -205 131q-20 41 -23 107.5t-3 146.5v655z" />
<glyph unicode="&#xc8;" horiz-adv-x="505" d="M55 1530h414v-80h-254v-594h236v-78h-236l2 -700h250v-78h-410zM125 1821h119l88 -213h-74z" />
<glyph unicode="&#xc9;" horiz-adv-x="505" d="M55 1530h414v-80h-254v-594h236v-78h-236l2 -700h250v-78h-410zM162 1608l88 213h119l-133 -213h-74z" />
<glyph unicode="&#xca;" horiz-adv-x="505" d="M55 1530h414v-80h-254v-594h236v-78h-236l2 -700h250v-78h-410zM57 1608l172 213h66l170 -213h-98l-107 125l-104 -125h-99z" />
<glyph unicode="&#xcb;" horiz-adv-x="505" d="M55 1530h414v-80h-254v-594h236v-78h-236l2 -700h250v-78h-410zM102 1608v161h121v-161h-121zM289 1608v161h121v-161h-121z" />
<glyph unicode="&#xcc;" horiz-adv-x="432" d="M70 1821h118l88 -213h-73zM139 -4v1536h158v-1536h-158z" />
<glyph unicode="&#xcd;" horiz-adv-x="505" d="M145 -4v1536h158v-1536h-158zM162 1608l88 213h119l-133 -213h-74z" />
<glyph unicode="&#xce;" horiz-adv-x="530" d="M57 1608l172 213h66l170 -213h-98l-107 125l-104 -125h-99zM178 -4v1536h158v-1536h-158z" />
<glyph unicode="&#xcf;" horiz-adv-x="514" d="M102 1608v161h121v-161h-121zM178 -4v1536h158v-1536h-158zM289 1608v161h121v-161h-121z" />
<glyph unicode="&#xd1;" horiz-adv-x="698" d="M80 0v1530h80l387 -1088v1088h80v-1530h-78l-389 1098v-1098h-80zM115 1610q0 162 129 162q25 0 49 -4.5t57 -27.5t53.5 -41t48.5 -18t48 14.5t20 63.5h62q0 -78 -33 -120t-96 -42q-59 0 -100.5 27.5t-61 45.5t-47 18t-48 -14.5t-20.5 -63.5h-61z" />
<glyph unicode="&#xd2;" horiz-adv-x="677" d="M78 268v752q0 277 22.5 354.5t87 126.5t158.5 49t160 -49q87 -66 100 -195q10 -101 10 -286v-752q0 -123 -20 -164q-67 -127 -250 -127q-181 0 -248 127q-20 41 -20 164zM207 1821h119l88 -213h-74zM229 233q0 -92 15 -123q29 -59 102 -59h2q80 0 102 66q11 35 12 93 t1 142v938q0 84 -18.5 135.5t-96.5 51.5h-2q-100 0 -112 -108q-3 -34 -3 -73z" />
<glyph unicode="&#xd3;" horiz-adv-x="681" d="M78 268v752q0 277 22.5 354.5t87 126.5t158.5 49t160 -49q87 -66 100 -195q10 -101 10 -286v-752q0 -123 -20 -164q-67 -127 -250 -127q-181 0 -248 127q-20 41 -20 164zM229 233q0 -92 15 -123q29 -59 102 -59h2q80 0 102 66q11 35 12 93t1 142v938q0 84 -18.5 135.5 t-96.5 51.5h-2q-100 0 -112 -108q-3 -34 -3 -73zM276 1608l89 213h118l-133 -213h-74z" />
<glyph unicode="&#xd4;" d="M78 268v752q0 277 22.5 354.5t87 126.5t158.5 49t160 -49q87 -66 100 -195q10 -101 10 -286v-752q0 -123 -20 -164q-67 -127 -250 -127q-181 0 -248 127q-20 41 -20 164zM145 1608l172 213h66l170 -213h-98l-107 125l-104 -125h-99zM229 233q0 -92 15 -123 q29 -59 102 -59h2q80 0 102 66q11 35 12 93t1 142v938q0 84 -18.5 135.5t-96.5 51.5h-2q-100 0 -112 -108q-3 -34 -3 -73z" />
<glyph unicode="&#xd5;" d="M78 268v752q0 277 22.5 354.5t87 126.5t158.5 49t160 -49q87 -66 100 -195q10 -101 10 -286v-752q0 -123 -20 -164q-67 -127 -250 -127q-181 0 -248 127q-20 41 -20 164zM115 1610q0 162 129 162q25 0 49 -4.5t57 -27.5t53.5 -41t48.5 -18t48 14.5t20 63.5h62 q0 -78 -33 -120t-96 -42q-59 0 -100.5 27.5t-61 45.5t-47 18t-48 -14.5t-20.5 -63.5h-61zM229 233q0 -92 15 -123q29 -59 102 -59h2q80 0 102 66q11 35 12 93t1 142v938q0 84 -18.5 135.5t-96.5 51.5h-2q-100 0 -112 -108q-3 -34 -3 -73z" />
<glyph unicode="&#xd6;" d="M78 268v752q0 277 22.5 354.5t87 126.5t158.5 49t160 -49q87 -66 100 -195q10 -101 10 -286v-752q0 -123 -20 -164q-67 -127 -250 -127q-181 0 -248 127q-20 41 -20 164zM188 1608v161h121v-161h-121zM229 233q0 -92 15 -123q29 -59 102 -59h2q80 0 102 66q11 35 12 93 t1 142v938q0 84 -18.5 135.5t-96.5 51.5h-2q-100 0 -112 -108q-3 -34 -3 -73zM375 1608v161h121v-161h-121z" />
<glyph unicode="&#xd8;" d="M78 268v752q0 277 22.5 354.5t87 126.5t144 49t137.5 -26l31 139h110l-49 -221q27 -43 34 -69t11 -66.5t6 -90.5q4 -102 4 -196v-752q0 -123 -20 -164q-67 -127 -250 -127q-55 0 -98 13l-27 -125h-108l37 174q-31 27 -49 61q-23 45 -23 168zM229 406l217 1011 q-21 60 -98 60h-2q-100 0 -112 -108q-3 -34 -3 -164t-1 -350t-1 -449zM266 76q27 -25 80 -25h2q80 0 102 66q11 35 12 93t1 142v629z" />
<glyph unicode="&#xd9;" horiz-adv-x="700" d="M82 268v1262h154v-1178l-3 -119q0 -92 15 -123q29 -59 102 -59h2q80 0 102 66q11 35 12 93t1 142v1178h154v-1262q0 -120 -27 -173.5t-89.5 -85.5t-133.5 -32h-41q-72 0 -134 32q-103 54 -111 166q-3 42 -3 93zM182 1821h119l88 -213h-74z" />
<glyph unicode="&#xda;" horiz-adv-x="710" d="M82 268v1262h154v-1178l-3 -119q0 -92 15 -123q29 -59 102 -59h2q80 0 102 66q11 35 12 93t1 142v1178h154v-1262q0 -120 -27 -173.5t-89.5 -85.5t-133.5 -32h-41q-72 0 -134 32q-103 54 -111 166q-3 42 -3 93zM281 1608l88 213h118l-133 -213h-73z" />
<glyph unicode="&#xdb;" d="M82 268v1262h154v-1178l-3 -119q0 -92 15 -123q29 -59 102 -59h2q80 0 102 66q11 35 12 93t1 142v1178h154v-1262q0 -120 -27 -173.5t-89.5 -85.5t-133.5 -32h-41q-72 0 -134 32q-103 54 -111 166q-3 42 -3 93zM145 1608l172 213h66l170 -213h-98l-107 125l-104 -125h-99 z" />
<glyph unicode="&#xdc;" d="M82 268v1262h154v-1178l-3 -119q0 -92 15 -123q29 -59 102 -59h2q80 0 102 66q11 35 12 93t1 142v1178h154v-1262q0 -120 -27 -173.5t-89.5 -85.5t-133.5 -32h-41q-72 0 -134 32q-103 54 -111 166q-3 42 -3 93zM190 1608v161h121v-161h-121zM377 1608v161h121v-161h-121z " />
<glyph unicode="&#xdd;" horiz-adv-x="663" d="M49 1530h154l151 -684l166 684h78l-201 -862v-668h-157v666zM293 1608l88 213h119l-133 -213h-74z" />
<glyph unicode="&#xe0;" horiz-adv-x="647" d="M59 -2l170 1534h189l190 -1534h-143l-35 283h-246l-41 -283h-84zM164 1821h119l88 -213h-74zM188 360h230l-113 943h-14z" />
<glyph unicode="&#xe1;" horiz-adv-x="714" d="M72 -2l170 1534h188l191 -1534h-144l-35 283h-245l-41 -283h-84zM201 360h229l-113 943h-14zM254 1608l88 213h119l-133 -213h-74z" />
<glyph unicode="&#xe2;" horiz-adv-x="620" d="M39 -2l170 1534h188l191 -1534h-144l-34 283h-246l-41 -283h-84zM92 1608l172 213h66l170 -213h-99l-106 125l-105 -125h-98zM168 360h229l-112 943h-15z" />
<glyph unicode="&#xe3;" horiz-adv-x="698" d="M80 -2l170 1534h188l191 -1534h-144l-34 283h-246l-41 -283h-84zM115 1610q0 162 129 162q25 0 49 -4.5t57 -27.5t53.5 -41t48.5 -18t48 14.5t20 63.5h62q0 -78 -33 -120t-96 -42q-59 0 -100.5 27.5t-61 45.5t-47 18t-48 -14.5t-20.5 -63.5h-61zM209 360h229l-112 943 h-15z" />
<glyph unicode="&#xe4;" horiz-adv-x="620" d="M39 -2l170 1534h188l191 -1534h-144l-34 283h-246l-41 -283h-84zM152 1608v161h120v-161h-120zM168 360h229l-112 943h-15zM338 1608v161h121v-161h-121z" />
<glyph unicode="&#xe7;" d="M70 1222q0 118 12 162q25 82 93.5 124t151.5 42t135 -20.5t86 -53.5q66 -63 66 -159v-164h-155v164q0 78 -22.5 119t-93.5 41t-93.5 -39t-22.5 -108v-151l-2 -473v-354q0 -61 -1 -116.5t7.5 -96.5t32 -64.5t83 -23.5t86 27.5t26.5 111.5v224h155v-228q0 -73 -61 -132 q-75 -70 -184 -74l-29 -89q89 19 134 -55q42 -72 0 -134q-49 -70 -171 -48l-2 65q82 -22 113 19q14 18 14 39.5t-14 38.5q-33 40 -95 10l-51 35l35 119q-147 15 -205 131q-20 41 -23 107.5t-3 146.5v655z" />
<glyph unicode="&#xe8;" horiz-adv-x="505" d="M55 1530h414v-80h-254v-594h236v-78h-236l2 -700h250v-78h-410zM125 1821h119l88 -213h-74z" />
<glyph unicode="&#xe9;" horiz-adv-x="505" d="M55 1530h414v-80h-254v-594h236v-78h-236l2 -700h250v-78h-410zM166 1608l119 213h118l-163 -213h-74z" />
<glyph unicode="&#xea;" horiz-adv-x="505" d="M55 1530h414v-80h-254v-594h236v-78h-236l2 -700h250v-78h-410zM57 1608l172 213h66l170 -213h-98l-107 125l-104 -125h-99z" />
<glyph unicode="&#xeb;" horiz-adv-x="505" d="M55 1530h414v-80h-254v-594h236v-78h-236l2 -700h250v-78h-410zM102 1608v161h121v-161h-121zM289 1608v161h121v-161h-121z" />
<glyph unicode="&#xec;" horiz-adv-x="432" d="M70 1821h118l88 -213h-73zM139 -4v1536h158v-1536h-158z" />
<glyph unicode="&#xed;" horiz-adv-x="505" d="M145 -4v1536h158v-1536h-158zM162 1608l88 213h119l-133 -213h-74z" />
<glyph unicode="&#xee;" horiz-adv-x="530" d="M57 1608l172 213h66l170 -213h-98l-107 125l-104 -125h-99zM178 -4v1536h158v-1536h-158z" />
<glyph unicode="&#xef;" horiz-adv-x="514" d="M102 1608v161h121v-161h-121zM178 -4v1536h158v-1536h-158zM289 1608v161h121v-161h-121z" />
<glyph unicode="&#xf1;" horiz-adv-x="698" d="M80 0v1530h80l387 -1088v1088h80v-1530h-78l-389 1098v-1098h-80zM115 1610q0 162 129 162q25 0 49 -4.5t57 -27.5t53.5 -41t48.5 -18t48 14.5t20 63.5h62q0 -78 -33 -120t-96 -42q-59 0 -100.5 27.5t-61 45.5t-47 18t-48 -14.5t-20.5 -63.5h-61z" />
<glyph unicode="&#xf2;" horiz-adv-x="677" d="M78 268v752q0 277 22.5 354.5t87 126.5t158.5 49t160 -49q87 -66 100 -195q10 -101 10 -286v-752q0 -123 -20 -164q-67 -127 -250 -127q-181 0 -248 127q-20 41 -20 164zM207 1821h119l88 -213h-74zM229 233q0 -92 15 -123q29 -59 102 -59h2q80 0 102 66q11 35 12 93 t1 142v938q0 84 -18.5 135.5t-96.5 51.5h-2q-100 0 -112 -108q-3 -34 -3 -73z" />
<glyph unicode="&#xf3;" horiz-adv-x="681" d="M78 268v752q0 277 22.5 354.5t87 126.5t158.5 49t160 -49q87 -66 100 -195q10 -101 10 -286v-752q0 -123 -20 -164q-67 -127 -250 -127q-181 0 -248 127q-20 41 -20 164zM229 233q0 -92 15 -123q29 -59 102 -59h2q80 0 102 66q11 35 12 93t1 142v938q0 84 -18.5 135.5 t-96.5 51.5h-2q-100 0 -112 -108q-3 -34 -3 -73zM276 1608l89 213h118l-133 -213h-74z" />
<glyph unicode="&#xf4;" d="M78 268v752q0 277 22.5 354.5t87 126.5t158.5 49t160 -49q87 -66 100 -195q10 -101 10 -286v-752q0 -123 -20 -164q-67 -127 -250 -127q-181 0 -248 127q-20 41 -20 164zM145 1608l172 213h66l170 -213h-98l-107 125l-104 -125h-99zM229 233q0 -92 15 -123 q29 -59 102 -59h2q80 0 102 66q11 35 12 93t1 142v938q0 84 -18.5 135.5t-96.5 51.5h-2q-100 0 -112 -108q-3 -34 -3 -73z" />
<glyph unicode="&#xf5;" d="M78 268v752q0 277 22.5 354.5t87 126.5t158.5 49t160 -49q87 -66 100 -195q10 -101 10 -286v-752q0 -123 -20 -164q-67 -127 -250 -127q-181 0 -248 127q-20 41 -20 164zM115 1610q0 162 129 162q25 0 49 -4.5t57 -27.5t53.5 -41t48.5 -18t48 14.5t20 63.5h62 q0 -78 -33 -120t-96 -42q-59 0 -100.5 27.5t-61 45.5t-47 18t-48 -14.5t-20.5 -63.5h-61zM229 233q0 -92 15 -123q29 -59 102 -59h2q80 0 102 66q11 35 12 93t1 142v938q0 84 -18.5 135.5t-96.5 51.5h-2q-100 0 -112 -108q-3 -34 -3 -73z" />
<glyph unicode="&#xf6;" d="M78 268v752q0 277 22.5 354.5t87 126.5t158.5 49t160 -49q87 -66 100 -195q10 -101 10 -286v-752q0 -123 -20 -164q-67 -127 -250 -127q-181 0 -248 127q-20 41 -20 164zM188 1608v161h121v-161h-121zM229 233q0 -92 15 -123q29 -59 102 -59h2q80 0 102 66q11 35 12 93 t1 142v938q0 84 -18.5 135.5t-96.5 51.5h-2q-100 0 -112 -108q-3 -34 -3 -73zM375 1608v161h121v-161h-121z" />
<glyph unicode="&#xf8;" d="M78 268v752q0 277 22.5 354.5t87 126.5t144 49t137.5 -26l31 139h110l-49 -221q27 -43 34 -69t11 -66.5t6 -90.5q4 -102 4 -196v-752q0 -123 -20 -164q-67 -127 -250 -127q-55 0 -98 13l-27 -125h-108l37 174q-31 27 -49 61q-23 45 -23 168zM229 406l217 1011 q-21 60 -98 60h-2q-100 0 -112 -108q-3 -34 -3 -164t-1 -350t-1 -449zM266 76q27 -25 80 -25h2q80 0 102 66q11 35 12 93t1 142v629z" />
<glyph unicode="&#xf9;" horiz-adv-x="700" d="M82 268v1262h154v-1178l-3 -119q0 -92 15 -123q29 -59 102 -59h2q80 0 102 66q11 35 12 93t1 142v1178h154v-1262q0 -120 -27 -173.5t-89.5 -85.5t-133.5 -32h-41q-72 0 -134 32q-103 54 -111 166q-3 42 -3 93zM182 1821h119l88 -213h-74z" />
<glyph unicode="&#xfa;" horiz-adv-x="710" d="M82 268v1262h154v-1178l-3 -119q0 -92 15 -123q29 -59 102 -59h2q80 0 102 66q11 35 12 93t1 142v1178h154v-1262q0 -120 -27 -173.5t-89.5 -85.5t-133.5 -32h-41q-72 0 -134 32q-103 54 -111 166q-3 42 -3 93zM281 1608l88 213h118l-133 -213h-73z" />
<glyph unicode="&#xfb;" d="M82 268v1262h154v-1178l-3 -119q0 -92 15 -123q29 -59 102 -59h2q80 0 102 66q11 35 12 93t1 142v1178h154v-1262q0 -120 -27 -173.5t-89.5 -85.5t-133.5 -32h-41q-72 0 -134 32q-103 54 -111 166q-3 42 -3 93zM145 1608l172 213h66l170 -213h-98l-107 125l-104 -125h-99 z" />
<glyph unicode="&#xfc;" d="M82 268v1262h154v-1178l-3 -119q0 -92 15 -123q29 -59 102 -59h2q80 0 102 66q11 35 12 93t1 142v1178h154v-1262q0 -120 -27 -173.5t-89.5 -85.5t-133.5 -32h-41q-72 0 -134 32q-103 54 -111 166q-3 42 -3 93zM190 1608v161h121v-161h-121zM377 1608v161h121v-161h-121z " />
<glyph unicode="&#xfd;" horiz-adv-x="663" d="M49 1530h154l151 -684l166 684h78l-201 -862v-668h-157v666zM293 1608l88 213h119l-133 -213h-74z" />
<glyph unicode="&#xff;" horiz-adv-x="663" d="M49 1530h154l151 -684l166 684h78l-201 -862v-668h-157v666zM180 1608v161h121v-161h-121zM367 1608v161h120v-161h-120z" />
<glyph unicode="&#x152;" horiz-adv-x="1202" d="M78 268v736q0 273 22.5 352.5t88 127.5t161.5 48h73q32 0 54 -2h400v-80h-254v-594h235v-78h-235l2 -700h249v-78h-526q-185 0 -250 127q-20 41 -20 141zM229 256q0 -80 20.5 -131t98.5 -51h117l-2 1386h-113l-2 -2q-78 0 -97.5 -49t-19.5 -155v-230l-2 -503v-265z" />
<glyph unicode="&#x153;" horiz-adv-x="1202" d="M78 268v736q0 273 22.5 352.5t88 127.5t161.5 48h73q32 0 54 -2h400v-80h-254v-594h235v-78h-235l2 -700h249v-78h-526q-185 0 -250 127q-20 41 -20 141zM229 256q0 -80 20.5 -131t98.5 -51h117l-2 1386h-113l-2 -2q-78 0 -97.5 -49t-19.5 -155v-230l-2 -503v-265z" />
<glyph unicode="&#x178;" horiz-adv-x="663" d="M49 1530h154l151 -684l166 684h78l-201 -862v-668h-157v666zM180 1608v161h121v-161h-121zM367 1608v161h120v-161h-120z" />
<glyph unicode="&#x2c6;" horiz-adv-x="532" d="M57 1608l172 213h66l170 -213h-98l-107 125l-104 -125h-99z" />
<glyph unicode="&#x2dc;" horiz-adv-x="659" d="M104 1610q0 78 33 120t96 42q25 0 49.5 -4.5t57.5 -27.5t53.5 -41t48 -18t48 14.5t20.5 63.5h61q0 -162 -129 -162q-60 0 -112 37q-29 18 -48.5 36t-47.5 18t-48 -14.5t-20 -63.5h-62z" />
<glyph unicode="&#x2000;" horiz-adv-x="910" />
<glyph unicode="&#x2001;" horiz-adv-x="1821" />
<glyph unicode="&#x2002;" horiz-adv-x="910" />
<glyph unicode="&#x2003;" horiz-adv-x="1821" />
<glyph unicode="&#x2004;" horiz-adv-x="607" />
<glyph unicode="&#x2005;" horiz-adv-x="455" />
<glyph unicode="&#x2006;" horiz-adv-x="303" />
<glyph unicode="&#x2007;" horiz-adv-x="303" />
<glyph unicode="&#x2008;" horiz-adv-x="227" />
<glyph unicode="&#x2009;" horiz-adv-x="364" />
<glyph unicode="&#x200a;" horiz-adv-x="101" />
<glyph unicode="&#x2010;" horiz-adv-x="471" d="M49 670v108h369v-108h-369z" />
<glyph unicode="&#x2011;" horiz-adv-x="471" d="M49 670v108h369v-108h-369z" />
<glyph unicode="&#x2012;" horiz-adv-x="471" d="M49 670v108h369v-108h-369z" />
<glyph unicode="&#x2013;" horiz-adv-x="710" d="M78 670v106h551v-106h-551z" />
<glyph unicode="&#x2014;" horiz-adv-x="763" d="M57 670v108h645v-108h-645z" />
<glyph unicode="&#x2018;" horiz-adv-x="237" d="M49 1161v185l60 184h73l-43 -187h51v-182h-141z" />
<glyph unicode="&#x2019;" horiz-adv-x="245" d="M49 1348v182h141v-184l-59 -185h-74l43 187h-51z" />
<glyph unicode="&#x201c;" horiz-adv-x="430" d="M49 1346v184h141v-182h-51l43 -187h-73zM244 1346v184h141v-182h-51l43 -187h-74z" />
<glyph unicode="&#x201d;" horiz-adv-x="432" d="M49 1348v182h141v-184l-59 -185h-74l43 187h-51zM244 1348v182h141v-184l-59 -185h-74l43 187h-51z" />
<glyph unicode="&#x201e;" horiz-adv-x="1705" />
<glyph unicode="&#x2026;" horiz-adv-x="768" d="M57 0v182h142v-182h-142zM313 0v182h142v-182h-142zM569 0v182h142v-182h-142z" />
<glyph unicode="&#x202f;" horiz-adv-x="364" />
<glyph unicode="&#x205f;" horiz-adv-x="455" />
<glyph unicode="&#xe000;" horiz-adv-x="1525" d="M0 0v1526h1526v-1526h-1526z" />
</font>
</defs>
</svg>
